<svg width="55" height="55" viewBox="0 0 55 55" fill="none" xmlns="http://www.w3.org/2000/svg">
<circle cx="27.5" cy="27.5" r="27.5" fill="#FEFAFA"/>
<g clip-path="url(#clip0_9_34)">
<path d="M42.3362 20.0418H27.6752L20.8514 9.59214C20.5811 9.09096 20.1983 8.81531 19.7028 8.76519C19.2073 8.71507 18.7344 8.89049 18.284 9.29143C17.6084 10.0933 17.5633 10.8952 18.1489 11.6971L23.4863 20.0418H13.5546C12.7439 20.0418 12.057 20.3551 11.4939 20.9816C10.9309 21.608 10.6494 22.3473 10.6494 23.1993V24.8532C10.6494 26.2565 11.235 27.2088 12.406 27.71L16.3922 41.3171C16.5724 42.0188 16.9327 42.6578 17.4732 43.2342C18.0137 43.8105 18.6218 44.0987 19.2974 44.0987H36.5934C37.2691 44.0987 37.8771 43.8105 38.4176 43.2342C38.9581 42.6578 39.3184 42.0188 39.4986 41.3171L43.4848 27.8603C44.6559 27.3591 45.2414 26.4069 45.2414 25.0036V23.3497C45.2414 22.3974 44.9599 21.608 44.3969 20.9816C43.8339 20.3551 43.147 20.0418 42.3362 20.0418ZM13.5546 23.1993H25.6483L26.6617 24.7029C26.7518 24.7029 26.7969 24.753 26.7969 24.8532H13.5546V23.1993ZM36.7286 40.415V40.5654C36.7286 40.6155 36.706 40.6656 36.661 40.7157C36.6159 40.7658 36.5934 40.8159 36.5934 40.8661H19.4325C19.3425 40.8661 19.2974 40.7658 19.2974 40.5654L15.5815 28.0107H40.3094L36.7286 40.415ZM29.2291 24.8532C29.5444 24.2518 29.702 23.7005 29.702 23.1993H42.3362V24.8532H29.2291ZM20.7162 38.0093C20.7613 38.3601 20.9414 38.6609 21.2567 38.9114C21.572 39.162 21.8873 39.2873 22.2026 39.2873H22.4729C22.8332 39.1871 23.126 38.9365 23.3512 38.5356C23.5764 38.1346 23.6214 37.7337 23.4863 37.3327L22.0675 30.9426C21.9774 30.5417 21.7522 30.2159 21.3919 29.9653C21.0315 29.7147 20.6712 29.6646 20.3109 29.8149C19.9505 29.9152 19.6578 30.1658 19.4325 30.5667C19.2073 30.9677 19.1623 31.3436 19.2974 31.6944L20.7162 38.0093ZM33.418 39.2873H33.6882C34.0035 39.2873 34.3188 39.162 34.6341 38.9114C34.9494 38.6609 35.1296 38.3601 35.1746 38.0093L36.5934 31.544C36.6835 31.1431 36.6272 30.7421 36.4245 30.3412C36.2218 29.9402 35.9403 29.7147 35.58 29.6646C34.6341 29.4641 34.0486 29.84 33.8234 30.7923L32.4046 37.1824C32.1343 38.1847 32.4721 38.8864 33.418 39.2873ZM27.9454 39.2873C28.8913 39.2873 29.3642 38.736 29.3642 37.6334V31.2433C29.3642 30.1908 28.8913 29.6646 27.9454 29.6646C26.9995 29.6646 26.5266 30.1908 26.5266 31.2433V37.6334C26.5266 38.736 26.9995 39.2873 27.9454 39.2873Z" fill="#3E2A35"/>
</g>
<defs>
<clipPath id="clip0_9_34">
<rect width="34.5968" height="37.2881" fill="white" transform="translate(10.6455 8.38965)"/>
</clipPath>
</defs>
</svg>
